# xmcd CD database file
#
# Track frame offsets:
#	150
#	17507
#	45002
#	61550
#	79625
#	101565
#	122057
#	133112
#	155145
#	174517
#	191175
#	208800
#	228170
#
# Disc length: 3334 seconds
#
# Revision: 2
# Processed by: cddbd v1.5PL3 Copyright (c) Steve Scherf et al.
# Submitted via: CDex 1.51
#
DISCID=a10d040d
DTITLE=Gordon - Alles Wat Ik Ben
DYEAR=1900
DGENRE=
TTITLE0=Ik Bel Je Zomaar Even Op
TTITLE1=Laat Me
TTITLE2='t Is Zo Weer Voorbij
TTITLE3=Liever Gelukkig Alleen
TTITLE4=Samen Met Jou
TTITLE5=Blijf Nou Nog Even
TTITLE6=Waar Moet Ik Heen
TTITLE7=Lag Het Echt Alleen Aan Mij?
TTITLE8=Elk Moment
TTITLE9=En Nu
TTITLE10=Alles Wat Ik Ben
TTITLE11=Spijt
TTITLE12=The Rhythm Of Love
EXTD=
EXTT0=
EXTT1=
EXTT2=
EXTT3=
EXTT4=
EXTT5=
EXTT6=
EXTT7=
EXTT8=
EXTT9=
EXTT10=
EXTT11=
EXTT12=
PLAYORDER=
